PathFileType	4	(X/Y/Z)	D:\TRACE\spotREDO_2-26-24\spot_justBody_Motion_3_2-platform.trc
DataRate	CameraRate	NumFrames	NumMarkers	Units	OrigDataRate	OrigDataStartFrame	OrigNumFrames
100.00	100.00	      24	5	mm	100.00	2626	      7000
Frame#	Time	Left_Front			Right_Front			Left_Aft			Right_Aft			Post			
		X1	Y1	Z1	X2	Y2	Z2	X3	Y3	Z3	X4	Y4	Z4	X5	Y5	Z5	

2626	26.250	-701.72424	-13.94700	-578.21857	713.16785	-3.67966	-493.77591	-773.37109	14.69209	640.27234	797.24286	22.15730	644.13940	7.74603	606.27484	-995.31091	
2627	26.260	-701.72186	-14.53937	-578.32037	713.38397	-4.31392	-493.74396	-773.23181	15.28062	640.07410	797.16241	22.77334	643.80841	7.91423	605.12744	-996.25232	
2628	26.270	-701.72247	-15.12819	-578.58966	713.42908	-4.83117	-493.91068	-773.02478	15.62811	639.92017	797.10461	23.48837	643.67670	7.71256	604.18372	-996.82996	
2629	26.280	-701.73145	-15.86549	-578.71167	713.46521	-5.53607	-493.95227	-772.93829	16.20271	639.87854	797.13525	24.01100	643.53894	7.86109	603.11469	-997.71912	
2630	26.290	-701.65082	-16.41517	-578.77930	713.44092	-6.10367	-494.14325	-773.05322	16.82559	639.68341	797.13647	24.67790	643.21234	7.72890	602.09253	-998.58374	
2631	26.300	-701.60791	-16.85252	-578.80585	713.34039	-6.37757	-494.36218	-772.91956	17.62151	639.48621	797.09015	25.09908	643.02020	7.99458	601.21222	-999.00629	
2632	26.310	-701.61609	-17.37848	-579.04395	713.37701	-6.58896	-494.48404	-772.90643	17.88222	639.36987	797.44183	25.74195	642.70959	8.07662	600.22760	-999.67700	
2633	26.320	-701.76105	-17.97173	-579.16760	713.30377	-7.07388	-494.75726	-772.83069	18.36342	639.22351	797.47467	26.58256	643.05493	7.81032	599.24860	-1000.62549	
2634	26.330	-701.63458	-18.77406	-579.21619	713.59332	-7.74713	-494.49966	-773.01324	19.15562	639.10236	797.57495	27.28181	642.80634	7.92803	598.24030	-1001.22852	
2635	26.340	-701.49866	-19.30615	-579.33966	713.31995	-8.37099	-494.95471	-773.09308	19.78062	638.82513	797.70087	27.98602	642.95374	7.82521	597.45709	-1001.62030	
2636	26.350	-701.43018	-19.64750	-579.44733	713.31177	-8.76458	-494.92914	-772.89740	20.31524	638.74042	797.73633	28.72083	642.86780	7.82419	596.47479	-1002.48792	
2637	26.360	-701.44995	-19.96462	-579.53650	713.36188	-9.13493	-495.01193	-772.95691	20.60200	638.60022	797.27301	28.69423	642.49011	8.08018	595.75183	-1003.04297	
2638	26.370	-701.73260	-20.50388	-579.72595	713.21729	-9.69143	-495.21109	-773.04553	21.03496	638.44598	797.46289	29.23238	642.31860	7.93510	594.72998	-1003.70319	
2639	26.380	-701.96588	-21.20570	-579.85364	713.10980	-10.03564	-495.14832	-773.31335	21.67027	638.29236	797.63470	29.93331	642.24341	7.69202	594.05438	-1004.23126	
2640	26.390	-701.99805	-21.75513	-579.83063	712.80707	-10.27264	-495.41068	-773.53735	22.18167	638.15692	797.25201	30.38031	642.03857	7.47461	593.30518	-1004.88055	
2641	26.400	-702.00269	-22.05741	-579.94751	712.47760	-10.63238	-495.64471	-773.73267	22.66928	638.13788	797.01996	31.00397	641.87817	7.29852	592.44305	-1005.57452	
2642	26.410	-702.22418	-22.39091	-580.11224	712.33405	-10.90725	-495.77460	-773.73578	22.99069	637.99530	796.96844	31.18324	641.72528	7.16437	591.69604	-1006.23877	
2643	26.420	-702.48444	-22.82307	-580.21027	712.36493	-11.57123	-495.69946	-774.04828	23.78460	637.44916	796.85602	31.47362	641.65271	7.46686	591.11969	-1006.38751	
2644	26.430	-702.66797	-23.17096	-580.36157	712.33026	-11.93118	-495.71695	-774.00250	24.02924	637.34094	795.78619	30.40664	640.26910	7.25147	590.08307	-1006.86908	
2645	26.440	-702.70422	-23.71247	-580.50092	712.26721	-12.29413	-495.85312	-773.83618	23.95969	637.71338	795.62036	31.28001	640.22467	6.87033	589.69855	-1007.55402	
2646	26.450	-702.79871	-24.03290	-580.49762	712.02417	-12.45149	-495.93460	-774.07025	24.44958	637.53687	795.72095	32.32383	640.74902	6.76182	589.02338	-1008.01190	
2647	26.460	-702.88965	-24.44648	-580.55774	711.97260	-12.70984	-496.04596	-774.34436	25.13467	637.36664	795.94208	32.64083	640.46521	6.61781	588.40576	-1008.45416	
2648	26.470	-703.07495	-24.81756	-580.65698	711.84808	-13.03436	-496.09500	-774.43188	25.34915	637.14001	795.80878	33.15193	640.73145	6.45696	587.67926	-1008.99719	
2649	26.480	-703.36456	-25.14598	-580.75775	711.72144	-13.63149	-496.16595	-774.76965	26.00559	636.90784	795.46509	33.49271	640.59009	6.51110	587.24884	-1009.19073	
